<svg viewBox="-0.1 -0.1 20 20" xmlns="http://www.w3.org/2000/svg" id="Car-Check-Service-6--Streamline-Ux" height="20" width="20">
  <desc>
    Car Check Service 6 Streamline Illustration: https://streamlinehq.com
  </desc>
  <path d="M3.203838 10.03365a7.92 7.92 0 1 0 15.84 0 7.92 7.92 0 1 0 -15.84 0Z" fill="#1576f00a" stroke="#1576f00a" stroke-width="0.2"></path>
  <path d="M18.988200000000003 9.098694000000002a7.870698 7.870698 0 0 0 -1.23354 -3.397482H11.2662v4.356h7.722Z" fill="#166b87" stroke-width="0.2"></path>
  <path d="m11.266992000000002 10.057212 7.5283560000000005 0" fill="none" stroke="#166b87" stroke-linecap="round" stroke-linejoin="round" stroke-width="0.2"></path>
  <path d="m13.948902 2.6334000000000004 -1.3588740000000001 1.4947020000000002a2.845854 2.845854 0 0 1 -1.2870000000000001 0.8118l-0.94149 0.282348a0.396 0.396 0 0 0 -0.28333800000000003 0.37758600000000003v1.6853760000000002a0.5940000000000001 0.5940000000000001 0 0 1 -0.1188 0.35640000000000005l-0.26769600000000005 0.35640000000000005a0.792 0.792 0 0 0 -0.14553 0.61677l0.19305 1.0620720000000001a0.94446 0.94446 0 0 0 0.929412 0.7757640000000001h1.0836540000000001a0.19602 0.19602 0 0 0 0.19245600000000002 -0.238788 3.366 3.366 0 1 1 6.562710000000001 0 0.196218 0.196218 0 0 0 0.192852 0.2376h0.33165q0.011088 -0.20849399999999998 0.01089 -0.41956200000000005A7.922772000000001 7.922772000000001 0 0 0 13.948902 2.6334000000000004Z" fill="#323232" stroke-width="0.2"></path>
  <path d="m13.948902 2.6334000000000004 -1.3588740000000001 1.4947020000000002a2.844072 2.844072 0 0 1 -1.2870000000000001 0.8118l-0.94149 0.282348a0.396 0.396 0 0 0 -0.28333800000000003 0.37758600000000003v0.792a0.396 0.396 0 0 1 0.28215 -0.379368l0.94149 -0.282348a2.844072 2.844072 0 0 0 1.2870000000000001 -0.8118l1.448964 -1.5939000000000003h1.296504a7.877034000000001 7.877034000000001 0 0 0 -1.3854060000000001 -0.6910200000000001Z" fill="#323232" stroke-width="0.2"></path>
  <path d="m13.948902 2.6334000000000004 -1.3588740000000001 1.4947020000000002a2.845854 2.845854 0 0 1 -1.2870000000000001 0.8118l-0.94149 0.282348a0.396 0.396 0 0 0 -0.28333800000000003 0.37758600000000003v1.6853760000000002a0.5940000000000001 0.5940000000000001 0 0 1 -0.1188 0.35640000000000005l-0.26769600000000005 0.35640000000000005a0.792 0.792 0 0 0 -0.14553 0.61677l0.19305 1.0620720000000001a0.94446 0.94446 0 0 0 0.929412 0.7757640000000001h1.0836540000000001a0.19602 0.19602 0 0 0 0.19245600000000002 -0.238788 3.366 3.366 0 1 1 6.562710000000001 0 0.196218 0.196218 0 0 0 0.192852 0.2376h0.33165" fill="none" stroke="#166b87" stroke-linecap="round" stroke-linejoin="round" stroke-width="0.2"></path>
  <path d="m9.682992 8.275212 1.584 0" fill="none" stroke="#166b87" stroke-linecap="round" stroke-linejoin="round" stroke-width="0.2"></path>
  <path d="m10.0782 5.599836000000001 1.93644 0.09009a0.198 0.198 0 0 1 0.182952 0.24591600000000002l-0.10890000000000001 0.43560000000000004a0.198 0.198 0 0 1 -0.153252 0.146124l-1.8572400000000002 0.37164600000000003Z" fill="#ffffff" stroke-width="0.2"></path>
  <path d="M12.015432 5.689926a0.198 0.198 0 0 1 0.182952 0.24591600000000002l-0.10890000000000001 0.43560000000000004a0.198 0.198 0 0 1 -0.153252 0.146124l-0.207306 0.041382 -0.92565 -0.92565Z" fill="#ffffff" stroke-width="0.2"></path>
  <path d="m10.0782 5.599836000000001 1.93644 0.09009a0.198 0.198 0 0 1 0.182952 0.24591600000000002l-0.10890000000000001 0.43560000000000004a0.198 0.198 0 0 1 -0.153252 0.146124l-1.8572400000000002 0.37164600000000003Z" fill="none" stroke="#166b87" stroke-linecap="round" stroke-linejoin="round" stroke-width="0.2"></path>
  <path d="m15.445584 3.3956999999999997 0.058013999999999996 1.32363a0.388872 0.388872 0 0 0 0.3168 0.38788200000000006A4.456386 4.456386 0 0 1 17.975628 6.058800000000001l-0.025344000000000002 -0.043362000000000005" fill="none" stroke="#166b87" stroke-linecap="round" stroke-linejoin="round" stroke-width="0.2"></path>
  <path d="M12.454992 9.463212a2.7720000000000002 2.7720000000000002 0 1 0 5.5440000000000005 0 2.7720000000000002 2.7720000000000002 0 1 0 -5.5440000000000005 0Z" fill="#000000" stroke-width="0.2"></path>
  <path d="M12.47103 9.763380000000002a2.7720000000000002 2.7720000000000002 0 0 1 5.5119240000000005 0A2.7720000000000002 2.7720000000000002 0 1 0 12.4542 9.463212a2.8361520000000002 2.8361520000000002 0 0 0 0.01683 0.300168Z" fill="#000000" stroke-width="0.2"></path>
  <path d="M12.454992 9.463212a2.7720000000000002 2.7720000000000002 0 1 0 5.5440000000000005 0 2.7720000000000002 2.7720000000000002 0 1 0 -5.5440000000000005 0Z" fill="none" stroke="#166b87" stroke-linecap="round" stroke-linejoin="round" stroke-width="0.2"></path>
  <path d="M13.444992 9.463212a1.782 1.782 0 1 0 3.564 0 1.782 1.782 0 1 0 -3.564 0Z" fill="#ffffff" stroke-width="0.2"></path>
  <path d="M13.444992 9.463212a1.782 1.782 0 1 0 3.564 0 1.782 1.782 0 1 0 -3.564 0Z" fill="none" stroke="#166b87" stroke-linecap="round" stroke-linejoin="round" stroke-width="0.2"></path>
  <path d="M14.830992 9.463212a0.396 0.396 0 1 0 0.792 0 0.396 0.396 0 1 0 -0.792 0Z" fill="#8ca4b8" stroke="#166b87" stroke-linecap="round" stroke-linejoin="round" stroke-width="0.2"></path>
  <path d="m15.226200000000002 8.671212 -0.163548 -0.9818819999999999c0.05385600000000001 -0.004752 0.10830600000000001 -0.008118 0.163548 -0.008118s0.10969200000000001 0.0033660000000000005 0.163746 0.008118Z" fill="#166b87" stroke="#166b87" stroke-linecap="round" stroke-linejoin="round" stroke-width="0.2"></path>
  <path d="m15.226200000000002 10.255212 0.163746 0.9816840000000001c-0.054054000000000005 0.00495 -0.10850400000000002 0.008316 -0.163746 0.008316s-0.10969200000000001 -0.0033660000000000005 -0.163548 -0.008316Z" fill="#166b87" stroke="#166b87" stroke-linecap="round" stroke-linejoin="round" stroke-width="0.2"></path>
  <path d="m15.787134000000002 8.903268 0.578358 -0.8100180000000001c0.041778 0.03465 0.082566 0.070884 0.121572 0.10989000000000002s0.07524 0.0792 0.10989000000000002 0.121572Z" fill="#166b87" stroke="#166b87" stroke-linecap="round" stroke-linejoin="round" stroke-width="0.2"></path>
  <path d="m14.667048 10.023156 -0.5785560000000001 0.8100180000000001c-0.04158 -0.03465 -0.082566 -0.070884 -0.121572 -0.10989000000000002s-0.07524 -0.0792 -0.10989000000000002 -0.121572Z" fill="#166b87" stroke="#166b87" stroke-linecap="round" stroke-linejoin="round" stroke-width="0.2"></path>
  <path d="m16.0182 9.463212 0.9818819999999999 -0.163548c0.00495 0.05385600000000001 0.008118 0.10830600000000001 0.008118 0.163548s-0.0031680000000000002 0.10969200000000001 -0.008118 0.163548Z" fill="#166b87" stroke="#166b87" stroke-linecap="round" stroke-linejoin="round" stroke-width="0.2"></path>
  <path d="m14.434200000000002 9.463212 -0.9816840000000001 0.163548c-0.00495 -0.05385600000000001 -0.008316 -0.10830600000000001 -0.008316 -0.163548s0.0033660000000000005 -0.10969200000000001 0.008316 -0.163548Z" fill="#166b87" stroke="#166b87" stroke-linecap="round" stroke-linejoin="round" stroke-width="0.2"></path>
  <path d="m15.787134000000002 10.023156 0.80982 0.5785560000000001c-0.03465 0.041778 -0.070884 0.082566 -0.10989000000000002 0.121572s-0.0792 0.07524 -0.121572 0.10989000000000002Z" fill="#166b87" stroke="#166b87" stroke-linecap="round" stroke-linejoin="round" stroke-width="0.2"></path>
  <path d="m14.667048 8.903268 -0.8100180000000001 -0.5785560000000001c0.03465 -0.041778 0.070884 -0.082566 0.10989000000000002 -0.121572s0.0792 -0.07524 0.121572 -0.10989000000000002Z" fill="#166b87" stroke="#166b87" stroke-linecap="round" stroke-linejoin="round" stroke-width="0.2"></path>
  <path d="M3.203838 10.03365a7.92 7.92 0 1 0 15.84 0 7.92 7.92 0 1 0 -15.84 0Z" fill="none" stroke="#1576f00a" stroke-width="0.2"></path>
  <path d="M7.989498 7.02504c2.1483 0 2.6322120000000004 -1.083852 2.6322120000000004 -1.083852a0.619344 0.619344 0 0 1 -0.619344 -0.619344V3.3087779999999998c0 -1.197108 -0.812988 -2.187108 -2.012868 -1.7028 -1.200078 -0.483912 -2.0130660000000002 0.506088 -2.0130660000000002 1.7028v2.0130660000000002a0.619344 0.619344 0 0 1 -0.619344 0.619344S5.841 7.02504 7.989498 7.02504Z" fill="#000000" stroke="#166b87" stroke-linecap="round" stroke-linejoin="round" stroke-width="0.2"></path>
  <path d="M4.948812 18.4338a3.1183020000000004 0.46767600000000004 0 1 0 6.236604000000001 0 3.1183020000000004 0.46767600000000004 0 1 0 -6.236604000000001 0Z" fill="#166b87" opacity=".15" stroke-width="0.2"></path>
  <path d="M6.406488 17.932068 6.058800000000001 9.650916a2.1562200000000002 2.1562200000000002 0 0 1 -0.492624 1.37016 1.73844 1.73844 0 0 1 -1.351944 0.5577660000000001 1.9380240000000002 1.9380240000000002 0 0 1 -1.131372 -0.325314v-1.1880000000000002a0.63954 0.63954 0 0 0 0.36234000000000005 -0.45124200000000003c0.0495 0.305514 0.21780000000000002 0.738144 0.768834 0.738144a0.5585580000000001 0.5585580000000001 0 0 0 0.43560000000000004 -0.147708 0.967626 0.967626 0 0 0 0.184536 -0.5544 3.1545360000000002 3.1545360000000002 0 1 1 6.308874 0v2.6290440000000004h-1.2276l-0.34452 5.652702000000001Z" fill="#166b87" stroke-width="0.2"></path>
  <path d="M11.012364000000002 9.650916a3.15513 3.15513 0 0 0 -6.045534000000001 0h-0.13167a3.1545360000000002 3.1545360000000002 0 0 1 6.308874 0Z" fill="#ffffff" stroke-width="0.2"></path>
  <path d="M6.406488 17.932068 6.058800000000001 9.650916a2.1562200000000002 2.1562200000000002 0 0 1 -0.492624 1.37016 1.73844 1.73844 0 0 1 -1.351944 0.5577660000000001 1.9380240000000002 1.9380240000000002 0 0 1 -1.131372 -0.325314v-1.1880000000000002a0.63954 0.63954 0 0 0 0.36234000000000005 -0.45124200000000003c0.0495 0.305514 0.21780000000000002 0.738144 0.768834 0.738144a0.5585580000000001 0.5585580000000001 0 0 0 0.43560000000000004 -0.147708 0.967626 0.967626 0 0 0 0.184536 -0.5544 3.1545360000000002 3.1545360000000002 0 1 1 6.308874 0v2.6290440000000004h-1.2276l-0.34452 5.652702000000001Z" fill="none" stroke="#166b87" stroke-linecap="round" stroke-linejoin="round" stroke-width="0.2"></path>
  <path d="M9.866736000000001 17.634276a0.315018 0.315018 0 0 1 -0.263736 0.48767400000000005h-1.29789a0.315414 0.315414 0 0 1 -0.279972 -0.46035000000000004c0.34452 -0.664884 1.448568 -0.627858 1.841598 -0.027324000000000005Z" fill="#323232" stroke="#166b87" stroke-linecap="round" stroke-linejoin="round" stroke-width="0.2"></path>
  <path d="M6.113052 17.634276a0.315018 0.315018 0 0 0 0.263934 0.48767400000000005h1.2974940000000001a0.315414 0.315414 0 0 0 0.28017000000000003 -0.46035000000000004c-0.34452 -0.664884 -1.448568 -0.627858 -1.841598 -0.027324000000000005Z" fill="#323232" stroke="#166b87" stroke-linecap="round" stroke-linejoin="round" stroke-width="0.2"></path>
  <path d="m7.9896959999999995 9.300456 -1.2474 -2.547468a3.1614660000000003 3.1614660000000003 0 0 1 2.4948 0Z" fill="#ffffff" stroke="#166b87" stroke-linecap="round" stroke-linejoin="round" stroke-width="0.2"></path>
  <path d="m9.231156 8.249076 -1.24146 1.05138 1.2474 -2.547468 0.599148 1.2891780000000002a0.145728 0.145728 0 0 1 -0.13206600000000002 0.20690999999999998Z" fill="#ffffff" stroke="#166b87" stroke-linecap="round" stroke-linejoin="round" stroke-width="0.2"></path>
  <path d="m6.748236 8.249076 1.24146 1.05138 -1.2474 -2.547468 -0.599148 1.2891780000000002a0.145728 0.145728 0 0 0 0.13206600000000002 0.20690999999999998Z" fill="#ffffff" stroke="#166b87" stroke-linecap="round" stroke-linejoin="round" stroke-width="0.2"></path>
  <path d="m7.989498 12.528054000000001 0 -3.227598" fill="#166b87" stroke="#166b87" stroke-linecap="round" stroke-linejoin="round" stroke-width="0.2"></path>
  <path d="M9.2367 6.752988a3.123846 3.123846 0 0 0 -0.495 -0.166122 0.198 0.198 0 0 1 -0.150678 -0.19245600000000002v-1.0432620000000001h-1.202256V6.3953999999999995a0.198 0.198 0 0 1 -0.150678 0.192258 3.144636 3.144636 0 0 0 -0.495 0.16632 1.3761 1.3761 0 0 0 2.4948 0Z" fill="#ffffff" stroke="#166b87" stroke-linecap="round" stroke-linejoin="round" stroke-width="0.2"></path>
  <path d="M9.917226000000001 12.892769999999999a0.6138 0.6138 0 0 0 1.2276 0v-0.6138h-1.2276Z" fill="#ffffff" stroke="#166b87" stroke-linecap="round" stroke-linejoin="round" stroke-width="0.2"></path>
  <path d="M10.352232 9.79902a1.119294 1.119294 0 0 1 -0.167508 0.611622 1.1179080000000001 1.1179080000000001 0 0 0 -0.205524 0.646866l-0.062172000000000005 1.221858" fill="none" stroke="#166b87" stroke-linecap="round" stroke-linejoin="round" stroke-width="0.2"></path>
  <path d="m7.989498 17.932068 0 -3.8588220000000004" fill="#166b87" stroke="#166b87" stroke-linecap="round" stroke-linejoin="round" stroke-width="0.2"></path>
  <path d="m9.128988000000001 15.194916000000001 0.483912 -0.6211260000000001a0.15642 0.15642 0 0 1 0.12058200000000001 -0.0594l1.7226 -0.025938000000000003a0.156816 0.156816 0 0 1 0.127116 0.06237l0.48430800000000007 0.6454799999999999a0.15582600000000002 0.15582600000000002 0 0 1 0.031086000000000003 0.093456v1.137312a0.31185 0.31185 0 0 1 -0.31185 0.31165200000000004H9.40797a0.31185 0.31185 0 0 1 -0.31185 -0.31165200000000004v-1.136322a0.15602400000000002 0.15602400000000002 0 0 1 0.032868 -0.095832Z" fill="#323232" stroke-width="0.2"></path>
  <path d="m9.733482 14.5134 1.7226 -0.025938000000000003a0.156816 0.156816 0 0 1 0.127116 0.06237l0.48430800000000007 0.6454799999999999a0.15582600000000002 0.15582600000000002 0 0 1 0.031086000000000003 0.093456v0.698742l-0.468666 -0.6248880000000001a0.30848400000000004 0.30848400000000004 0 0 0 -0.251658 -0.123354l-1.570734 0.023364a0.309078 0.309078 0 0 0 -0.239184 0.1188l-0.47163600000000006 0.6058800000000001v-0.696564a0.15602400000000002 0.15602400000000002 0 0 1 0.032868 -0.095832l0.483912 -0.6211260000000001a0.15642 0.15642 0 0 1 0.119988 -0.06039Z" fill="#323232" stroke-width="0.2"></path>
  <path d="m9.128988000000001 15.194916000000001 0.483912 -0.6211260000000001a0.15642 0.15642 0 0 1 0.12058200000000001 -0.0594l1.7226 -0.025938000000000003a0.156816 0.156816 0 0 1 0.127116 0.06237l0.48430800000000007 0.6454799999999999a0.15582600000000002 0.15582600000000002 0 0 1 0.031086000000000003 0.093456v1.137312a0.31185 0.31185 0 0 1 -0.31185 0.31165200000000004H9.40797a0.31185 0.31185 0 0 1 -0.31185 -0.31165200000000004v-1.136322a0.15602400000000002 0.15602400000000002 0 0 1 0.032868 -0.095832Z" fill="none" stroke="#166b87" stroke-linecap="round" stroke-linejoin="round" stroke-width="0.2"></path>
  <path d="m11.161062000000001 15.242832 -0.396198 -1.7831880000000002" fill="none" stroke="#166b87" stroke-linecap="round" stroke-linejoin="round" stroke-width="0.2"></path>
  <path d="m10.029294 15.259662 0.391842 -1.763586" fill="none" stroke="#166b87" stroke-linecap="round" stroke-linejoin="round" stroke-width="0.2"></path>
  <path d="m0.9294770554740001 7.04206240353 4.413297189015 -0.540633795174 0.6951005938008 5.6742392430108 -4.413297189015 0.540633795174Z" fill="#323232" stroke="#166b87" stroke-linecap="round" stroke-linejoin="round" stroke-width="0.2"></path>
  <path d="m4.1976 7.601616000000001 -1.8914940000000002 0.231858 -0.11583 -0.9458460000000001a1.391148 1.391148 0 0 1 0.907236 -0.43104600000000004 1.3909500000000001 1.3909500000000001 0 0 1 0.9842580000000001 0.19938599999999998Z" fill="#ffffff" stroke="#166b87" stroke-linecap="round" stroke-linejoin="round" stroke-width="0.2"></path>
  <path d="m1.675798181442 7.910535544718401 3.1523551350192 -0.38616699654720005 0.4634003958606 3.7828261620071997 -3.1523551349994 0.38616699654720005z" fill="#ffffff" stroke="#166b87" stroke-linecap="round" stroke-linejoin="round" stroke-width="0.2"></path>
  <path d="M3.474702 10.54053a0.31798800000000005 0.31798800000000005 0 0 1 -0.137016 -0.049302000000000006l-0.5904360000000001 -0.38412a0.3168 0.3168 0 0 1 0.34590600000000005 -0.53163l0.2475 0.16136999999999999 0.44451 -1.3196700000000001a0.3168 0.3168 0 1 1 0.6009300000000001 0.20255399999999998l-0.5742 1.7069580000000002a0.3168 0.3168 0 0 1 -0.3366 0.21384000000000003Z" fill="#166b87" stroke="#166b87" stroke-linecap="round" stroke-linejoin="round" stroke-width="0.2"></path>
  <path d="m0.9159480000000001 11.683584000000002 -0.14751 -0.502128a0.28690200000000005 0.28690200000000005 0 0 1 0.14374800000000001 -0.340164l0.254628 -0.125136a0.282942 0.282942 0 0 1 0.39303000000000005 0.18255600000000002l0.17483400000000002 0.5940000000000001A0.28314 0.28314 0 0 1 1.5026220000000001 11.8602l-0.281952 0.032472a0.286704 0.286704 0 0 1 -0.304722 -0.20908800000000002Z" fill="#ffffff" stroke="#166b87" stroke-linecap="round" stroke-linejoin="round" stroke-width="0.2"></path>
  <path d="M5.806548 4.328676a0.38412 0.38412 0 0 1 0.31165200000000004 -0.374022v-0.24967799999999998a1.8711 1.8711 0 0 1 3.7422 0v0.24967799999999998a0.381744 0.381744 0 0 1 -0.0396 0.7559640000000001 1.8711 1.8711 0 0 1 -3.6630000000000003 0 0.385902 0.385902 0 0 1 -0.351252 -0.381942Z" fill="#ffffff" stroke="#166b87" stroke-linecap="round" stroke-linejoin="round" stroke-width="0.2"></path>
  <path d="M8.457174 3.9388140000000003a0.23383800000000002 0.23383800000000002 0 1 0 0.46767600000000004 0 0.23383800000000002 0.23383800000000002 0 1 0 -0.46767600000000004 0Z" fill="#166b87" stroke-width="0.2"></path>
  <path d="M7.053948 3.9388140000000003a0.23383800000000002 0.23383800000000002 0 1 0 0.46767600000000004 0 0.23383800000000002 0.23383800000000002 0 1 0 -0.46767600000000004 0Z" fill="#166b87" stroke-width="0.2"></path>
  <path d="M8.769024 4.562514a0.23383800000000002 0.23383800000000002 0 1 0 0.46767600000000004 0 0.23383800000000002 0.23383800000000002 0 1 0 -0.46767600000000004 0Z" fill="#ffffff" stroke-width="0.2"></path>
  <path d="M6.742098 4.562514a0.23383800000000002 0.23383800000000002 0 1 0 0.46767600000000004 0 0.23383800000000002 0.23383800000000002 0 1 0 -0.46767600000000004 0Z" fill="#ffffff" stroke-width="0.2"></path>
  <path d="M8.457174 5.122656a0.843876 0.843876 0 0 1 -0.93555 0" fill="none" stroke="#166b87" stroke-linecap="round" stroke-linejoin="round" stroke-width="0.2"></path>
  <path d="m10.328076000000001 3.393126 -4.677354 0" fill="none" stroke="#166b87" stroke-linecap="round" stroke-linejoin="round" stroke-width="0.2"></path>
  <path d="M5.962572000000001 3.081474a2.026926 2.026926 0 1 1 4.053654 0v0.31165200000000004H5.962572000000001Z" fill="#ffffff" stroke-width="0.2"></path>
  <path d="M7.989498 1.054548a2.0267280000000003 2.0267280000000003 0 0 1 2.0267280000000003 2.026926v0.31165200000000004h-0.026334000000000003a2.024352 2.024352 0 0 0 -4.000986 0h-0.026334000000000003v-0.31165200000000004A2.026926 2.026926 0 0 1 7.989498 1.054548Z" fill="#ffffff" stroke-width="0.2"></path>
  <path d="M5.962572000000001 3.081474a2.026926 2.026926 0 1 1 4.053654 0v0.31165200000000004H5.962572000000001Z" fill="none" stroke="#166b87" stroke-linecap="round" stroke-linejoin="round" stroke-width="0.2"></path>
  <path d="M7.521624 3.393126h0.93555L8.735759999999999 1.303236a0.30808800000000003 0.30808800000000003 0 0 0 -0.219978 -0.341352 2.215818 2.215818 0 0 0 -1.052568 0 0.30808800000000003 0.30808800000000003 0 0 0 -0.22017600000000004 0.341352Z" fill="#ffffff" stroke-width="0.2"></path>
  <path d="M7.4630160000000005 0.961884a2.220768 2.220768 0 0 1 1.052568 0 0.30808800000000003 0.30808800000000003 0 0 1 0.22017600000000004 0.341352l-0.06553800000000001 0.49222800000000005a2.032074 2.032074 0 0 0 -1.3614480000000002 0l-0.06553800000000001 -0.49242600000000003a0.30808800000000003 0.30808800000000003 0 0 1 0.21978000000000003 -0.341154Z" fill="#ffffff" stroke-width="0.2"></path>
  <path d="M7.521624 3.393126h0.93555L8.735759999999999 1.303236a0.30808800000000003 0.30808800000000003 0 0 0 -0.219978 -0.341352 2.215818 2.215818 0 0 0 -1.052568 0 0.30808800000000003 0.30808800000000003 0 0 0 -0.22017600000000004 0.341352Z" fill="none" stroke="#166b87" stroke-linecap="round" stroke-linejoin="round" stroke-width="0.2"></path>
  <path d="m6.578748 1.625976 0.16335 1.143648" fill="none" stroke="#166b87" stroke-linecap="round" stroke-linejoin="round" stroke-width="0.2"></path>
  <path d="m9.40005 1.625976 -0.16335 1.143648" fill="none" stroke="#166b87" stroke-linecap="round" stroke-linejoin="round" stroke-width="0.2"></path>
</svg>