<svg xmlns="http://www.w3.org/2000/svg" fill="none" viewBox="-0.25 -0.25 24 24" id="Account-Group-4--Streamline-Cyber" height="24" width="24">
  <desc>
    Account Group 4 Streamline Icon: https://streamlinehq.com
  </desc>
  <path stroke="#166b87" stroke-linecap="round" stroke-linejoin="round" stroke-miterlimit="10" d="m22.03125 10.28125 -1.46875 0.9791666666666666 -1.46875 -0.9791666666666666V8.8125L20.5625 7.833333333333333l1.46875 0.9791666666666666v1.46875Z" stroke-width="0.5"></path>
  <path stroke="#166b87" stroke-linecap="round" stroke-linejoin="round" stroke-miterlimit="10" d="M22.03125 16.15625h0.9791666666666666v-2.9375l-2.4479166666666665 -0.9791666666666666 -2.4479166666666665 0.9791666666666666v2.9375h0.9791666666666666v3.9166666666666665h2.9375v-3.9166666666666665Z" stroke-width="0.5"></path>
  <path stroke="#166b87" stroke-linecap="round" stroke-linejoin="round" stroke-miterlimit="10" d="M14.197916666666666 22.03125v-5.875h1.9583333333333333v-4.895833333333333l-3.9166666666666665 -1.46875 -3.9166666666666665 1.46875v4.895833333333333h1.9583333333333333v5.875h3.9166666666666665Z" stroke-width="0.5"></path>
  <path stroke="#166b87" stroke-linecap="round" stroke-linejoin="round" stroke-miterlimit="10" d="M12.239583333333332 12.239583333333332v2.9375" stroke-width="0.5"></path>
  <path stroke="#166b87" stroke-linecap="round" stroke-linejoin="round" stroke-miterlimit="10" d="m15.177083333333332 7.34375 -2.9375 1.46875 -2.9375 -1.46875v-3.9166666666666665l2.9375 -1.46875 2.9375 1.46875v3.9166666666666665Z" stroke-width="0.5"></path>
  <path stroke="#166b87" stroke-linecap="round" stroke-linejoin="round" stroke-miterlimit="10" d="M15.177083333333332 4.40625H11.75l-2.4479166666666665 -0.9791666666666666" stroke-width="0.5"></path>
  <path stroke="#166b87" stroke-linecap="round" stroke-linejoin="round" stroke-miterlimit="10" d="m5.385416666666666 10.28125 -1.46875 0.9791666666666666 -1.46875 -0.9791666666666666V8.8125L3.9166666666666665 7.833333333333333l1.46875 0.9791666666666666v1.46875Z" stroke-width="0.5"></path>
  <path stroke="#166b87" stroke-linecap="round" stroke-linejoin="round" stroke-miterlimit="10" d="M5.385416666666666 16.15625h0.9791666666666666v-2.9375l-2.4479166666666665 -0.9791666666666666 -2.4479166666666665 0.9791666666666666v2.9375h0.9791666666666666v3.9166666666666665h2.9375v-3.9166666666666665Z" stroke-width="0.5"></path>
</svg>