<svg xmlns="http://www.w3.org/2000/svg" fill="none" viewBox="-0.25 -0.25 24 24" id="Credit-Card-Hand-2--Streamline-Cyber" height="24" width="24">
  <desc>
    Credit Card Hand 2 Streamline Icon: https://streamlinehq.com
  </desc>
  <path stroke="#166b87" stroke-linecap="round" stroke-linejoin="round" stroke-miterlimit="10" d="m4.40625 17.625 2.9375 -1.9583333333333333 0.4895833333333333 -2.9375 3.427083333333333 -2.4479166666666665V7.833333333333333l-2.9375 0.9791666666666666 -4.0390625 1.5911458333333333L0.4895833333333333 14.197916666666666" stroke-width="0.5"></path>
  <path stroke="#166b87" stroke-linecap="round" stroke-linejoin="round" stroke-miterlimit="10" d="m0.4895833333333333 22.520833333333332 3.9166666666666665 -1.46875h6.1697291666666665" stroke-width="0.5"></path>
  <path stroke="#166b87" stroke-linecap="round" stroke-linejoin="round" stroke-miterlimit="10" d="M15.854666666666667 20.072916666666664h-4.6902083333333335L10.28125 18.604166666666664l0.8832083333333334 -1.46875h5.708541666666666" stroke-width="0.5"></path>
  <path stroke="#166b87" stroke-linecap="round" stroke-linejoin="round" stroke-miterlimit="10" d="M11.164458333333332 20.072916666666664 10.28125 21.541666666666664l0.8832083333333334 1.46875h3.671875l3.0540208333333334 -8.8125" stroke-width="0.5"></path>
  <path stroke="#166b87" stroke-linecap="round" stroke-linejoin="round" stroke-miterlimit="10" d="M5.385416666666666 9.969875V2.4479166666666665h17.625v11.75h-12.729166666666666" stroke-width="0.5"></path>
  <path stroke="#166b87" stroke-linecap="round" stroke-linejoin="round" stroke-miterlimit="10" d="M5.385416666666666 4.40625h17.625" stroke-width="0.5"></path>
  <path stroke="#166b87" stroke-linecap="round" stroke-linejoin="round" stroke-miterlimit="10" d="M23.010416666666664 6.364583333333333h-17.625" stroke-width="0.5"></path>
  <path stroke="#166b87" stroke-linecap="round" stroke-linejoin="round" stroke-miterlimit="10" d="M21.052083333333332 12.239583333333332h-2.9375" stroke-width="0.5"></path>
  <path stroke="#166b87" stroke-linecap="round" stroke-linejoin="round" stroke-miterlimit="10" d="M16.15625 12.239583333333332h-0.9791666666666666" stroke-width="0.5"></path>
  <path stroke="#166b87" stroke-linecap="round" stroke-linejoin="round" stroke-miterlimit="10" d="M21.052083333333332 10.28125h-7.833333333333333" stroke-width="0.5"></path>
  <path stroke="#166b87" stroke-linecap="round" stroke-linejoin="round" stroke-miterlimit="10" d="m11.75 17.135416666666664 -0.4895833333333333 -1.46875 0.6531041666666667 -1.46875" stroke-width="0.5"></path>
</svg>