<svg id="Graphics" xmlns="http://www.w3.org/2000/svg" xmlns:xlink="http://www.w3.org/1999/xlink" viewBox="0 0 300 200"><defs><style>.cls-1{fill:none;}.cls-2,.cls-3,.cls-5{fill:#fff;}.cls-2,.cls-3,.cls-4{stroke:#231f20;}.cls-2{stroke-width:3.18px;}.cls-2,.cls-9{fill-rule:evenodd;}.cls-3,.cls-4{stroke-width:1.6px;}.cls-4,.cls-6{fill:#231f20;}.cls-7,.cls-8{fill:#221f1f;}.cls-8{stroke:#221f1f;stroke-width:1.05px;}.cls-11,.cls-9{fill:#51b7ea;}.cls-10{clip-path:url(#clip-path);}.cls-12{clip-path:url(#clip-path-2);}</style><clipPath id="clip-path"><path class="cls-1" d="M266,122.09a7.16,7.16,0,0,0-5.32-2.38H7.25A7.34,7.34,0,0,0,0,127.13v49.46A7.33,7.33,0,0,0,7.25,184H260.67a7.16,7.16,0,0,0,5.32-2.38l22.36-24.72a7.55,7.55,0,0,0,0-10.08Z"/></clipPath><clipPath id="clip-path-2"><rect class="cls-1" y="119.71" width="292.23" height="64.29"/></clipPath></defs><g id="cfx"><path class="cls-2" d="M288.64,111a4.37,4.37,0,0,1-4.42,4.32H5.87A4.37,4.37,0,0,1,1.45,111h0V65.85a4.38,4.38,0,0,1,4.42-4.32H284.22a4.38,4.38,0,0,1,4.42,4.32Z"/><rect class="cls-3" x="240.83" y="65.52" width="43.7" height="45.71"/><rect class="cls-4" x="52.81" y="65.59" width="43.7" height="45.71"/><rect class="cls-4" x="99.66" y="65.59" width="43.7" height="45.71"/><rect class="cls-4" x="146.82" y="65.59" width="43.7" height="45.71"/><rect class="cls-4" x="193.98" y="65.59" width="43.7" height="45.71"/><rect class="cls-4" x="5.65" y="65.59" width="43.7" height="45.71"/><path class="cls-5" d="M28.53,104.91c-9.31,0-14.27-6.88-14.27-16.18,0-10.09,5.9-16.17,14.32-16.17,7.7,0,10.74,3.31,12.89,9.22l-7.88,3.1c-1.12-2.92-2.19-4.76-5.06-4.76-3.63,0-5.2,3.64-5.2,8.61,0,4.81,1.53,8.63,5.29,8.63,2.73,0,3.9-1.49,5.6-4.45l7.34,3.91C39.46,100.93,36,104.91,28.53,104.91Z"/><path class="cls-5" d="M77.37,91.65H72.18l.58-2.06c1.12-4,1.62-5.72,2-7.83.4,2.11.89,3.8,2,7.83Zm13.22,12.41L79.21,72.72H70.43L59.06,104.06h9.31l1.7-5.54h9.41l1.7,5.54Z"/><path class="cls-5" d="M125.9,83.31c0,2.24-1.12,3.49-3.94,3.49h-5.11V79.94h5.24C124.83,79.94,125.9,81.34,125.9,83.31Zm9.28,20.9-6.27-12c3.44-1.56,5.64-4.47,5.64-9.17,0-7.43-4.88-10.21-12.23-10.21h-14v31.38h8.55V93.63h3.49l5.12,10.58Z"/><path class="cls-5" d="M164.89,80.25v4.37h9.8V92h-9.8v12.21h-8.64V72.87h24.81v7.38Z"/><path class="cls-5" d="M218.11,91.89h-5.19l.58-2c1.12-4,1.61-5.73,2-7.83.41,2.1.9,3.8,2,7.83Zm13.21,12.42L220,73h-8.78L199.8,104.31h9.31l1.7-5.54h9.41l1.7,5.54Z"/><path class="cls-6" d="M267.07,111.66l-1.39-2.12c-1.22-2-2.45-4.06-3.28-5.75a55.76,55.76,0,0,1-3.33,5.75l-1.53,2.12H246.89l10.32-14.28L246.37,82h11l1.91,3a53.69,53.69,0,0,1,3.29,5.7A62.33,62.33,0,0,1,265.9,85l1.91-3h10.78l-10.8,15.2L278,111.66Z"/><path class="cls-7" d="M300,64.72a4.09,4.09,0,0,1-1.19,3A3.87,3.87,0,0,1,295.92,69a3.94,3.94,0,0,1-2.9-1.22,4,4,0,0,1-1.2-2.94,4.09,4.09,0,0,1,1.19-3,3.94,3.94,0,0,1,2.91-1.22,3.86,3.86,0,0,1,2.89,1.22A4.11,4.11,0,0,1,300,64.72Zm-.65,0a3.55,3.55,0,0,0-1-2.51A3.2,3.2,0,0,0,296,61.14a3.3,3.3,0,0,0-2.47,1.07,3.53,3.53,0,0,0-1,2.53,3.46,3.46,0,0,0,1,2.51,3.37,3.37,0,0,0,4.85-.06A3.55,3.55,0,0,0,299.35,64.72Zm-1.14-1.09a1.34,1.34,0,0,1-.49,1.1,1.6,1.6,0,0,1-1.1.41l1.5,2h-.93l-1.49-2h-.85v2h-.74v-5h2.42a1.78,1.78,0,0,1,1.25.41A1.34,1.34,0,0,1,298.21,63.63Zm-.78,0c0-.5-.38-.75-1.13-.75h-1.45v1.61h1.5C297.07,64.49,297.43,64.2,297.43,63.63Z"/></g><g id="show"><path class="cls-7" d="M13.65,43.4v1.35c0,2.9.81,5.1,3.92,5.1s4.09-2.36,4.09-4.56c0-8.28-16.5-3.66-16.5-18C5.16,21.16,8.44,16,17.73,16,26.76,16,30,20.57,30,26.48v.91H21.3a8,8,0,0,0-.75-4A2.86,2.86,0,0,0,17.79,22c-2.26,0-3.6,1.34-3.6,4.14,0,8,16.49,4,16.49,17.51,0,8.71-4.83,12.2-13.11,12.2-6.55,0-12.63-2-12.63-10V43.4Z"/><path class="cls-7" d="M35,16.75h9V31.1h7.2V16.75h9V55.12h-9V38.73H44V55.12H35Z"/><path class="cls-7" d="M78.51,55.87C66.63,55.87,65,48.13,65,35.93S66.63,16,78.51,16C91.3,16,92,25.29,92,35.93S91.3,55.87,78.51,55.87Zm-.06-6c3.66,0,4.2-3.38,4.2-13.92s-.54-14-4.2-14-4.08,3.4-4.08,13.93.54,13.92,4.08,13.92Z"/><path class="cls-7" d="M93.61,16.75h9L106,44.05h.1l4-27.3h8.38l4.3,27.3h.11l3.17-27.3h8.71l-6.66,38.37h-10l-3.92-27.25h-.11l-3.71,27.25h-10Z"/><path class="cls-8" d="M176.67,19.65h-.11l-11,35.47h-2.25l-11-35.47h-.11V55.12H150V16.75h3.65l10.91,34.5h.11l10.6-34.5h3.71V55.12h-2.26Z"/><path class="cls-8" d="M185.11,16.75h18.32v2H187.36V34.11h15v2h-15v17h16.55v2h-18.8Z"/><path class="cls-8" d="M226,18.79H215.73v-2h22.68v2H228.2V55.12H226Z"/><path class="cls-8" d="M241.8,16.75h2.25V33.57h16.82V16.75h2.26V55.12h-2.26V35.61H244.05V55.12H241.8Z"/><path class="cls-8" d="M267.53,16.75h18.33v2H269.79V34.11h15v2h-15v17h16.55v2H267.53Z"/></g><path class="cls-9" d="M266,122.09a7.16,7.16,0,0,0-5.32-2.38H7.25A7.34,7.34,0,0,0,0,127.13v49.46A7.33,7.33,0,0,0,7.25,184H260.67a7.16,7.16,0,0,0,5.32-2.38l22.36-24.72a7.55,7.55,0,0,0,0-10.08Z"/><g class="cls-10"><rect class="cls-11" y="119.71" width="292.23" height="64.29"/><g class="cls-12"><rect class="cls-11" x="-9.74" y="109.97" width="309.76" height="83.77"/></g></g><path class="cls-5" d="M33,166.36V138.17H51.48V143H38.93v7.55H50.39v4.67H38.93v11.1Z"/><path class="cls-5" d="M69.35,159.52h-9.9l-2.15,6.84H51.24L61,138.17h7l9.81,28.19H71.5Zm-8.63-4.41h7.36l-3.61-11.55h-.14Z"/><path class="cls-5" d="M80.64,166.36V138.17h5.9v28.19Z"/><path class="cls-5" d="M97.12,166.36h-5.9V138.17h11.55c6.48,0,10.19,3.42,10.19,9a8.29,8.29,0,0,1-5.12,8l5.94,11.19H107.1L101.85,156H97.12Zm0-14.59h5.08c3,0,4.71-1.7,4.71-4.5s-1.84-4.49-4.77-4.49h-5Z"/><path class="cls-5" d="M132.42,166.36l-9.48-28.19h6.6L136,160.28h.14l6.44-22.11H149l-9.48,28.19Z"/><path class="cls-5" d="M165.18,159.52h-9.91l-2.14,6.84h-6.06l9.79-28.19h6.93l9.8,28.19h-6.26Zm-8.64-4.41h7.37l-3.62-11.55h-.13Z"/><path class="cls-5" d="M194.69,166.36H176.47V138.17h5.89v23.3h12.33Z"/><path class="cls-5" d="M203.24,155.81c0,3.61,2.13,6,5.92,6s5.9-2.37,5.9-6V138.17H221V156.4c0,6.21-4.59,10.44-11.8,10.44s-11.82-4.23-11.82-10.44V138.17h5.9Z"/><path class="cls-5" d="M244.32,166.36H225.65V138.17h18.67V143H231.54v6.79h12.05v4.53H231.54v7.11h12.78Z"/></svg>