<svg xmlns="http://www.w3.org/2000/svg" viewBox="0 0 150 150" height="150" width="150"><path d="M115.625 0h-81.25A34.4375 34.4375 0 0 0 0 34.375v81.25A34.4375 34.4375 0 0 0 34.375 150h81.25a34.4375 34.4375 0 0 0 34.375 -34.375v-81.25A34.4375 34.4375 0 0 0 115.625 0Zm6.25 64.0625a42.25 42.25 0 0 1 -31.25 -14.0625v46.875a31.25 31.25 0 1 1 -31.25 -31.25 26.437500000000004 26.437500000000004 0 0 1 3.125 0.3125v15.625a17.0625 17.0625 0 0 0 -3.125 -0.3125 15.625 15.625 0 1 0 15.625 15.625v-75h18.75l0.9375 3.75a28.000000000000004 28.000000000000004 0 0 0 27.187499999999996 21.25Z" fill="#000000" stroke-width="1"></path></svg>